<svg xmlns="http://www.w3.org/2000/svg" width="60" height="60" viewBox="0 0 60 60">
  <g id="_60x60-4" data-name="60x60-4" transform="translate(-415 -1019)">
    <rect id="Rectangle_2982" data-name="Rectangle 2982" width="60" height="60" transform="translate(415 1019)" fill="none"/>
    <path id="Path_6459" data-name="Path 6459" d="M26,50A24,24,0,1,1,50,26,24,24,0,0,1,26,50ZM17.6,30.8v4.8h6v4.8h4.8V35.6h2.4a6,6,0,0,0,0-12H21.2a1.2,1.2,0,0,1,0-2.4H34.4V16.4h-6V11.6H23.6v4.8H21.2a6,6,0,0,0,0,12h9.6a1.2,1.2,0,0,1,0,2.4Z" transform="translate(419 1023)" fill="#043854"/>
  </g>
</svg>
