<svg xmlns="http://www.w3.org/2000/svg" width="60" height="60" viewBox="0 0 60 60">
  <g id="_60x60-2" data-name="60x60-2" transform="translate(-457 -1136)">
    <rect id="Rectangle_3031" data-name="Rectangle 3031" width="60" height="60" transform="translate(457 1136)" fill="none"/>
    <g id="Layer_1" data-name="Layer 1" transform="translate(458.854 1139)">
      <path id="Path_6476" data-name="Path 6476" d="M44.814,0A13.9,13.9,0,0,1,46.5.478a7.039,7.039,0,0,1,4.423,6.143c.46,3.783,1,7.554,1.487,11.332.039.3.143.377.43.41a2.267,2.267,0,0,1,2.048,2.393A2.3,2.3,0,0,1,52.631,22.9a3.294,3.294,0,0,1-1.732-.385,15.5,15.5,0,0,0-15.129.1,2.372,2.372,0,0,1-1.056.271Q22.306,22.915,9.9,22.9H9.139V43.192a2.363,2.363,0,0,0,2.65,2.645q8.71,0,17.421-.01a.793.793,0,0,1,.812.5c.655,1.169,1.362,2.307,2.051,3.456.107.179.225.351.38.592-.245.011-.415.026-.584.026H11.606a6.829,6.829,0,0,1-6.938-5.783,8.363,8.363,0,0,1-.085-1.442q0-9.775,0-19.55V22.91c-.557,0-1.071-.039-1.575.007A2.637,2.637,0,0,1,0,21.164V20.09a2.505,2.505,0,0,1,2.247-1.765c.08,0,.2-.223.215-.354.511-3.768,1.046-7.535,1.5-11.315A7.052,7.052,0,0,1,7.766.773,15.981,15.981,0,0,1,10.077,0ZM25.13,18.31V4.618H19.162c-.607,4.562-1.212,9.108-1.822,13.692ZM29.764,4.618V18.31h7.787c-.61-4.583-1.215-9.131-1.822-13.692ZM14.543,4.593c-1.273,0-2.466-.013-3.658,0a2.272,2.272,0,0,0-2.3,2.1Q7.844,12.274,7.1,17.847a3.407,3.407,0,0,0,0,.453H12.72C13.327,13.738,13.93,9.208,14.543,4.593Zm25.848.029a1.365,1.365,0,0,0-.007.163q.874,6.616,1.742,13.231c.046.352.252.327.487.325h5.225c-.049-.392-.085-.716-.126-1.025-.47-3.581-.934-7.161-1.418-10.733a2.166,2.166,0,0,0-1.862-1.942c-1.335-.073-2.673-.019-4.042-.019Z" fill="#043854"/>
      <path id="Path_6477" data-name="Path 6477" d="M232.334,199.507a13.984,13.984,0,0,1-1.328-1.007,27.518,27.518,0,0,1-6.1-8.1,12.134,12.134,0,0,1-1.258-5.83,8.989,8.989,0,1,1,17.934,1.244,14.18,14.18,0,0,1-2.133,6.244,30.312,30.312,0,0,1-5.829,7,5.043,5.043,0,0,1-.7.45Zm-3.3-14.395a3.59,3.59,0,1,0,3.562-3.6A3.59,3.59,0,0,0,229.03,185.112Z" transform="translate(-188.241 -149.106)" fill="#f5411f"/>
      <rect id="Rectangle_3033" data-name="Rectangle 3033" width="16" height="9" transform="translate(13.146 32)" fill="#043854"/>
    </g>
  </g>
</svg>
