<svg xmlns="http://www.w3.org/2000/svg" width="60" height="60" viewBox="0 0 60 60">
  <g id="_60x60-1" data-name="60x60-1" transform="translate(-458 -1140)">
    <rect id="Rectangle_3030" data-name="Rectangle 3030" width="60" height="60" transform="translate(458 1140)" fill="none"/>
    <g id="Layer_1" data-name="Layer 1" transform="translate(460 1140)">
      <path id="Path_6464" data-name="Path 6464" d="M38.963,225.989H0c.1-1.013.146-2.019.318-3q2.581-14.477,16.069-20.3c.905-.389,1.871-.635,2.8-.964a.66.66,0,0,1,.775.221q2.972,3,5.961,5.984c.77.77,1.177.772,1.943,0,1.879-1.879,3.761-3.755,5.625-5.648a.722.722,0,0,1,.872-.216,26.528,26.528,0,0,1,6.671,3.336c.159.111.318.235.5.378a13.206,13.206,0,0,0-6.16,9.488A12.631,12.631,0,0,0,38.963,225.989Z" transform="translate(-2 -168.956)" fill="#043854"/>
      <path id="Path_6465" data-name="Path 6465" d="M80.54,13.533A13.406,13.406,0,1,1,94,26.923,13.406,13.406,0,0,1,80.54,13.533Z" transform="translate(-69.747 2.889)" fill="#043854"/>
      <path id="Path_6475" data-name="Path 6475" d="M189.855,200.856c-.671-.143-1.354-.245-2.01-.436a9.977,9.977,0,1,1,4.288.335c-.193.03-.384.065-.577.1Zm-.417-9.241c-.481-.492-.927-.966-1.394-1.417a1.178,1.178,0,1,0-1.669,1.663q1.095,1.125,2.221,2.219a1.135,1.135,0,0,0,1.658.024q2.435-2.4,4.835-4.824a1.174,1.174,0,0,0-1.672-1.648c-.919.892-1.818,1.8-2.723,2.709C190.286,190.748,189.884,191.163,189.438,191.616Z" transform="translate(-143.714 -142.952)" fill="#f5411f"/>
    </g>
  </g>
</svg>
