<svg xmlns="http://www.w3.org/2000/svg" width="60" height="60" viewBox="0 0 60 60">
  <g id="_60x60-3" data-name="60x60-3" transform="translate(-457 -1133)">
    <rect id="Rectangle_3032" data-name="Rectangle 3032" width="60" height="60" transform="translate(457 1133)" fill="none"/>
    <g id="Layer_1" data-name="Layer 1" transform="translate(463 1139)">
      <path id="Path_6472" data-name="Path 6472" d="M0,40.928V1.289A2.388,2.388,0,0,1,1.289,0H12.762V14.763a1.722,1.722,0,0,0,1.862,1.878H27.483a1.732,1.732,0,0,0,1.873-1.878c.009-2.56,0-5.118,0-7.677q0-3.543.016-7.086H40.843a2.225,2.225,0,0,1,1.28,2.346c-.029,6.513-.014,13.034-.014,19.539v.665A18.067,18.067,0,0,0,22.5,42.2h-.66c-6.5,0-13-.014-19.5.016A2.239,2.239,0,0,1,0,40.928Zm12.787-9.681H9.735a1.717,1.717,0,1,0-.039,3.43q3.051.023,6.1,0a1.718,1.718,0,1,0-.014-3.432C14.786,31.241,13.787,31.247,12.787,31.247Z" fill="#043854"/>
      <path id="Path_6473" data-name="Path 6473" d="M189.855,200.856c-.671-.143-1.354-.245-2.01-.436a9.977,9.977,0,1,1,4.288.335c-.193.03-.384.065-.577.1Zm-.417-9.241c-.481-.492-.927-.966-1.394-1.417a1.178,1.178,0,1,0-1.669,1.663q1.095,1.125,2.221,2.219a1.135,1.135,0,0,0,1.658.024q2.435-2.4,4.835-4.824a1.174,1.174,0,0,0-1.672-1.648c-.919.892-1.818,1.8-2.723,2.709C190.286,190.748,189.884,191.163,189.438,191.616Z" transform="translate(-152.831 -153.952)" fill="#f5411f"/>
      <path id="Path_6474" data-name="Path 6474" d="M122.761,0l-.021,12.5v.675H113V0Z" transform="translate(-96.815)" fill="#043854"/>
    </g>
  </g>
</svg>
