<svg xmlns="http://www.w3.org/2000/svg" width="60" height="60" viewBox="0 0 60 60">
  <g id="_60x60-1" data-name="60x60-1" transform="translate(-408 -1024)">
    <rect id="Rectangle_2980" data-name="Rectangle 2980" width="60" height="60" transform="translate(408 1024)" fill="none"/>
    <g id="Group_770" data-name="Group 770" transform="translate(408.002 1035.003)">
      <path id="Path_6450" data-name="Path 6450" d="M2.266,25.257a19.879,19.879,0,0,1,0-6.518,5.039,5.039,0,0,0,4.953-2.861,5.034,5.034,0,0,0-1.48-5.525A19.879,19.879,0,0,1,10.35,5.74a5.038,5.038,0,0,0,5.527,1.48,5.034,5.034,0,0,0,2.859-4.953,19.879,19.879,0,0,1,6.522,0,5.035,5.035,0,0,0,2.859,4.953,5.034,5.034,0,0,0,5.525-1.48,19.879,19.879,0,0,1,4.613,4.611,5.038,5.038,0,0,0-1.48,5.527,5.034,5.034,0,0,0,4.953,2.859,19.879,19.879,0,0,1,0,6.522,5.035,5.035,0,0,0-4.953,2.859,5.034,5.034,0,0,0,1.48,5.525,19.879,19.879,0,0,1-4.611,4.613,5.038,5.038,0,0,0-5.527-1.48,5.034,5.034,0,0,0-2.859,4.953,19.879,19.879,0,0,1-6.522,0,5.035,5.035,0,0,0-2.859-4.953,5.034,5.034,0,0,0-5.525,1.48A19.879,19.879,0,0,1,5.74,33.644a5.038,5.038,0,0,0,1.48-5.527,5.034,5.034,0,0,0-4.953-2.859ZM22,28a6,6,0,1,0-6-6A6,6,0,0,0,22,28Z" transform="translate(0)" fill="#043854"/>
      <path id="Path_6451" data-name="Path 6451" d="M2.132,13.627a9.939,9.939,0,0,1,0-3.259A2.52,2.52,0,0,0,4.608,8.937a2.517,2.517,0,0,0-.74-2.762A9.939,9.939,0,0,1,6.174,3.869a2.519,2.519,0,0,0,2.763.74,2.517,2.517,0,0,0,1.43-2.476,9.939,9.939,0,0,1,3.261,0,2.517,2.517,0,0,0,1.43,2.476,2.517,2.517,0,0,0,2.762-.74,9.939,9.939,0,0,1,2.306,2.305,2.519,2.519,0,0,0-.74,2.763,2.517,2.517,0,0,0,2.476,1.43,9.94,9.94,0,0,1,0,3.261,2.517,2.517,0,0,0-2.476,1.43,2.517,2.517,0,0,0,.74,2.762,9.939,9.939,0,0,1-2.305,2.306,2.519,2.519,0,0,0-2.763-.74,2.517,2.517,0,0,0-1.43,2.476,9.939,9.939,0,0,1-3.261,0,2.517,2.517,0,0,0-1.43-2.476,2.517,2.517,0,0,0-2.762.74,9.939,9.939,0,0,1-2.306-2.305,2.519,2.519,0,0,0,.74-2.763,2.517,2.517,0,0,0-2.476-1.43ZM12,15a3,3,0,1,0-3-3A3,3,0,0,0,12,15Z" transform="translate(35 -6)" fill="#043854"/>
    </g>
  </g>
</svg>
