<svg xmlns="http://www.w3.org/2000/svg" width="16.67" height="16.67" viewBox="0 0 16.67 16.67">
  <path d="M3.694,143.84l-.58,2.166-2.121.045a8.35,8.35,0,0,1-.061-7.783h0l1.888.346.827,1.877a4.974,4.974,0,0,0,.047,3.349Z" transform="translate(0 -133.766)" fill="#fbbb00"/>
  <path d="M269.634,208.176a8.332,8.332,0,0,1-2.971,8.057h0l-2.378-.121-.337-2.1a4.968,4.968,0,0,0,2.137-2.537h-4.457v-3.3h8.006Z" transform="translate(-253.11 -201.398)" fill="#518ef8"/>
  <path d="M43.068,314.17h0a8.338,8.338,0,0,1-12.56-2.55l2.7-2.211a4.957,4.957,0,0,0,7.143,2.538Z" transform="translate(-29.516 -299.335)" fill="#28b446"/>
  <path d="M41.347,1.919l-2.7,2.211a4.956,4.956,0,0,0-7.307,2.6L28.624,4.5h0A8.337,8.337,0,0,1,41.347,1.919Z" transform="translate(-27.692)" fill="#f14336"/>
</svg>
