<svg id="Layer_1" data-name="Layer 1" xmlns="http://www.w3.org/2000/svg" width="24" height="15.66" viewBox="0 0 24 15.66">
  <path id="Path_6439" data-name="Path 6439" d="M286.365,164.43a.689.689,0,0,1-.708.378c-1.092-.013-2.185-.005-3.278-.005h-.227a7.664,7.664,0,0,0-1.441-5.1,3.741,3.741,0,0,1,1.491-.091,4.683,4.683,0,0,1,4.123,4.071.888.888,0,0,0,.041.131Z" transform="translate(-262.365 -149.149)" fill="#333"/>
  <path id="Path_6440" data-name="Path 6440" d="M86.578,134.949H80.485c-.506,0-.695-.2-.678-.7a6.78,6.78,0,0,1,13.444-1.071,9.674,9.674,0,0,1,.119,1.116c.026.442-.185.654-.627.654Z" transform="translate(-74.59 -119.295)" fill="#333"/>
  <path id="Path_6441" data-name="Path 6441" d="M131.361,0a3.654,3.654,0,1,1-3.672,3.634A3.654,3.654,0,0,1,131.361,0Z" transform="translate(-119.344 0)" fill="#333"/>
  <path id="Path_6442" data-name="Path 6442" d="M38.229,66.505A2.607,2.607,0,1,1,35.62,63.9a2.607,2.607,0,0,1,2.609,2.605Z" transform="translate(-30.858 -59.724)" fill="#333"/>
  <path id="Path_6443" data-name="Path 6443" d="M258.062,69.064a2.607,2.607,0,1,1,2.6-2.606A2.607,2.607,0,0,1,258.062,69.064Z" transform="translate(-238.755 -59.677)" fill="#333"/>
  <path id="Path_6444" data-name="Path 6444" d="M4.22,165c-1.231,0-2.472.005-3.713,0a.506.506,0,0,1-.5-.583,4.592,4.592,0,0,1,2.125-3.856,4.488,4.488,0,0,1,3.306-.707c.069.01.135.033.218.054A7.6,7.6,0,0,0,4.22,165Z" transform="translate(-0.003 -149.352)" fill="#333"/>
</svg>
