<svg id="Yokart-B2B" xmlns="http://www.w3.org/2000/svg" width="160" height="49.188" viewBox="0 0 160 49.188">
  <g id="base" transform="translate(0 0)">
    <g id="letters" transform="translate(44.515 7.88)">
      <path id="Path_117" data-name="Path 117" d="M104.771,34.059l.842,13.563a1.577,1.577,0,0,0,1.7,1.49l4.3-10.416A16.566,16.566,0,0,0,112.6,34h5.887a12.214,12.214,0,0,1-1.119,6.865L111.559,54.3c-4.338,9.836-10.257,10.828-12.916,11.267V61.172a14.089,14.089,0,0,0,6.653-6.865c-3.587,0-5.407-1.984-5.72-5.511L98.29,34.059Z" transform="translate(-98.29 -26.482)" fill="#474748"/>
      <path id="Path_118" data-name="Path 118" d="M154.37,33.64c6.911,0,8.931,3.582,7.7,11.39-1.2,7.5-3.714,9.3-10.833,9.3-6.979,0-8.989-3.5-7.848-10.728,1.3-8.269,4.076-9.963,10.991-9.963M151.9,49.513c2.572,0,3.12-.362,3.922-5.2.793-4.914.534-5.856-2.183-5.856s-3.2.847-4,5.856c-.765,4.637-.172,5.2,2.264,5.2" transform="translate(-122.8 -26.285)" fill="#474748"/>
      <path id="Path_119" data-name="Path 119" d="M186.845,40.5a1.023,1.023,0,0,1,1.078-.956h3.809c.575,0,.8.421.725.956l-.639,3.895a.933.933,0,0,1-.992.879h-3.809a.729.729,0,0,1-.8-.879Zm3.433-23.1h6.1l-3.863,20.338h-4.886Z" transform="translate(-146.39 -17.4)" fill="#474748"/>
      <path id="Path_120" data-name="Path 120" d="M225.563,25.14h-6.589a11.555,11.555,0,0,1-6.721,7.047L214.577,17.6h-6.245l-4.4,27.765h6.245l1.44-8.912,1.445-.036,4.429,8.949h6.852L218.689,34.4a14.543,14.543,0,0,0,6.874-9.257" transform="translate(-156.089 -17.509)" fill="#474748"/>
      <path id="Path_121" data-name="Path 121" d="M259.52,33.388c3.007-.086,7.413.494,9.356,2.359l-2.645,18.187h-4.9l-.96-2c-.965,1.436-3.523,2.264-5.77,2.264-3.8,0-6.725-3.732-5.113-11.775,1.685-8.405,6.272-8.949,10.026-9.057m-2.264,15.683a3.8,3.8,0,0,0,3.677-1.943l1.264-8.636a5.828,5.828,0,0,0-3.17-.267c-1.445.312-2.817.847-3.455,5.154-.471,3.333-.48,5.693,1.689,5.693" transform="translate(-180.771 -26.138)" fill="#474748"/>
      <path id="Path_122" data-name="Path 122" d="M294.486,34h5.407l.421,2.554a8.176,8.176,0,0,1,5.625-2.753,6.032,6.032,0,0,1,2.011.217L307,40.023c-.571-.027-1.811-.059-2.953-.059-1.9,0-3.55.2-4.628,2.264L297.53,54.216h-6.25Z" transform="translate(-203.881 -26.365)" fill="#474748"/>
      <path id="Path_123" data-name="Path 123" d="M328.77,21.72h6.34l-.906,5.638h4.017l-.716,4.529h-4.017l-1.173,7.364c-.453,2.971.05,3.437.992,3.863a20.629,20.629,0,0,0,2.061.774l-.616,3.772h-4.076c-3.211,0-5.593-1.988-4.773-7.246Z" transform="translate(-222.736 -19.764)" fill="#474748"/>
    </g>
    <g id="icon">
      <path id="Path_124" data-name="Path 124" d="M43.7.168c-2.45-.752-6.037,1.11-7.527,3.908-1.15,2.147-2.042,3.981-2.758,5.434-1.44,2.962-2.305,4.742-3.532,5.638-1.617,1.187-3.963.453-7.214-.534L4.879,9.18a3.107,3.107,0,0,0-1.811,5.942L10.829,17.5l8.233,2.522,1.811.552V20.6a4.112,4.112,0,0,1-.829,7.794,4.1,4.1,0,0,1-3.682,6.911h0l-.4-.118h-.045l-1.146-.349L6.3,32.244,2.85,31.18a2.207,2.207,0,1,0-1.3,4.221l16.394,5.022c6.58,2.02,11.217-1.988,12.9-6.861,1.046-3.03,8.745-23.884,11.322-27.928a7.192,7.192,0,0,1,2.011-2.115,2.147,2.147,0,0,0,1.014-1.254A1.857,1.857,0,0,0,43.7.163" transform="translate(0.006 0)" fill="#f5411f"/>
      <path id="Path_125" data-name="Path 125" d="M7.944,89a3.31,3.31,0,1,1-2.192-4.13A3.31,3.31,0,0,1,7.944,89" transform="translate(-0.8 -46.356)" fill="#f5411f"/>
      <path id="Path_126" data-name="Path 126" d="M38.174,98.281a3.306,3.306,0,0,1-2.717,2.305,3.265,3.265,0,0,1-1.44-.113,3.31,3.31,0,1,1,4.157-2.192" transform="translate(-17.34 -51.432)" fill="#f5411f"/>
      <path id="Path_127" data-name="Path 127" d="M21.6,64.214a2.6,2.6,0,0,1-.788-.118l-1.277-.421-.453-.1-8.414-2.586a2.717,2.717,0,0,1-1.811-3.406,2.753,2.753,0,0,1,2.613-1.929,2.808,2.808,0,0,1,.8.118l9.089,2.79h0l1.014.29h.05a2.717,2.717,0,0,1-.815,5.33" transform="translate(-4.775 -30.448)" fill="#f5411f"/>
      <path id="Path_128" data-name="Path 128" d="M26.211,49.415a2.677,2.677,0,0,1-.774-.118l-1.2-.389-.4-.1-8.306-2.55a2.672,2.672,0,1,1,1.54-5.108L26,43.862h0l1,.3a2.672,2.672,0,0,1-.788,5.253" transform="translate(-7.374 -22.424)" fill="#f5411f"/>
    </g>
  </g>
  <g id="slogan" transform="translate(64.971 39.095)">
    <path id="Path_129" data-name="Path 129" d="M143.46,86.6h2.215a4.284,4.284,0,0,1,2.2.453,1.5,1.5,0,0,1,.684,1.359,1.725,1.725,0,0,1-.3,1.046,1.2,1.2,0,0,1-.8.489V90a1.562,1.562,0,0,1,.978.566,2.047,2.047,0,0,1-.408,2.613,3.012,3.012,0,0,1-1.907.548H143.46Zm1.508,2.817h.879a1.6,1.6,0,0,0,.906-.19.711.711,0,0,0,.272-.625.634.634,0,0,0-.3-.589,1.925,1.925,0,0,0-.946-.177h-.793Zm0,1.2v1.852h1a1.449,1.449,0,0,0,.906-.24.879.879,0,0,0,.3-.729q0-.906-1.263-.906Z" transform="translate(-143.46 -86.473)" fill="#474748"/>
    <path id="Path_130" data-name="Path 130" d="M162.09,93.6h-4.982V92.553l1.784-1.811a14.314,14.314,0,0,0,1.037-1.123,2.5,2.5,0,0,0,.349-.584,1.449,1.449,0,0,0,.109-.552.824.824,0,0,0-.236-.639.906.906,0,0,0-.629-.208,1.812,1.812,0,0,0-.806.19,4.049,4.049,0,0,0-.811.539l-.815-.969a5.1,5.1,0,0,1,.865-.62,2.934,2.934,0,0,1,.752-.285,3.8,3.8,0,0,1,.906-.1,2.762,2.762,0,0,1,1.177.24,1.861,1.861,0,0,1,.793.684,1.784,1.784,0,0,1,.285,1,2.431,2.431,0,0,1-.177.906,3.455,3.455,0,0,1-.534.883,12.971,12.971,0,0,1-1.277,1.286l-.906.86v.072h3.1Z" transform="translate(-150.917 -86.361)" fill="#474748"/>
    <path id="Path_131" data-name="Path 131" d="M170.8,86.6h2.215a4.284,4.284,0,0,1,2.2.453,1.5,1.5,0,0,1,.684,1.359,1.725,1.725,0,0,1-.3,1.046,1.2,1.2,0,0,1-.8.489V90a1.576,1.576,0,0,1,.978.566,2.047,2.047,0,0,1-.408,2.613,3.012,3.012,0,0,1-1.907.548H170.8Zm1.508,2.817h.879a1.6,1.6,0,0,0,.906-.19.711.711,0,0,0,.272-.625.634.634,0,0,0-.3-.589,1.934,1.934,0,0,0-.947-.177h-.793Zm0,1.2v1.852h.983a1.449,1.449,0,0,0,.906-.24.879.879,0,0,0,.3-.729c0-.589-.421-.906-1.268-.906Z" transform="translate(-158.419 -86.473)" fill="#474748"/>
    <path id="Path_132" data-name="Path 132" d="M194.318,93.725l-1.734-5.579h-.045c.059,1.132.091,1.893.091,2.264v3.31H191.27V86.61h2.051l1.685,5.434h.027l1.784-5.434h2.056v7.115h-1.386V89.807c0-.208.027-.761.063-1.653h-.041l-1.834,5.57Z" transform="translate(-169.618 -86.482)" fill="#474748"/>
    <path id="Path_133" data-name="Path 133" d="M215.309,93.692,214.8,92H212.2l-.516,1.694H210.06l2.513-7.142h1.843l2.518,7.142Zm-.874-2.957q-.716-2.3-.806-2.6c-.059-.2-.1-.362-.127-.476q-.163.618-.906,3.079Z" transform="translate(-179.899 -86.45)" fill="#474748"/>
    <path id="Path_134" data-name="Path 134" d="M228.728,90.981V93.7H227.22V86.6h2.074a3.523,3.523,0,0,1,2.142.53,2.1,2.1,0,0,1,.353,2.717,2.305,2.305,0,0,1-.978.77q1.6,2.4,2.092,3.1h-1.676L229.53,91Zm0-1.227h.485a1.857,1.857,0,0,0,1.055-.235.842.842,0,0,0,.344-.752.784.784,0,0,0-.349-.72,2.142,2.142,0,0,0-1.078-.213h-.453Z" transform="translate(-189.288 -86.47)" fill="#474748"/>
    <path id="Path_135" data-name="Path 135" d="M247.464,93.725h-1.716l-1.861-3-.639.453V93.72H241.74V86.61h1.508v3.256l.593-.815,1.929-2.418h1.671L244.96,89.8Z" transform="translate(-197.232 -86.482)" fill="#474748"/>
    <path id="Path_136" data-name="Path 136" d="M260.476,93.725H256.4V86.61h4.076v1.236h-2.59v1.562h2.409v1.236h-2.409v1.811h2.59Z" transform="translate(-205.253 -86.482)" fill="#474748"/>
    <path id="Path_137" data-name="Path 137" d="M270.577,93.725h-1.508v-5.86H267.14V86.61h5.371v1.254h-1.934Z" transform="translate(-211.13 -86.482)" fill="#474748"/>
    <path id="Path_138" data-name="Path 138" d="M286.324,88.82a2.187,2.187,0,0,1-.716,1.757,3.088,3.088,0,0,1-2.042.607h-.648v2.532H281.41V86.6h2.264a3.03,3.03,0,0,1,1.97.557,2.038,2.038,0,0,1,.679,1.662Zm-3.406,1.128h.5a1.676,1.676,0,0,0,1.042-.272,1.151,1.151,0,0,0,.054-1.585,1.359,1.359,0,0,0-.906-.254h-.688Z" transform="translate(-218.937 -86.474)" fill="#474748"/>
    <path id="Path_139" data-name="Path 139" d="M295.23,93.725V86.61h1.508V92.5h2.885v1.245Z" transform="translate(-226.499 -86.482)" fill="#474748"/>
    <path id="Path_140" data-name="Path 140" d="M310.929,93.692,310.412,92h-2.59l-.516,1.694H305.68l2.509-7.142h1.843l2.522,7.142Zm-.874-2.957q-.72-2.3-.806-2.6c-.059-.2-.1-.362-.127-.476q-.163.62-.906,3.079Z" transform="translate(-232.216 -86.45)" fill="#474748"/>
    <path id="Path_141" data-name="Path 141" d="M325.487,87.611a1.531,1.531,0,0,0-1.318.639,2.975,2.975,0,0,0-.453,1.784q0,2.378,1.789,2.378a5.543,5.543,0,0,0,1.811-.376V93.3a5.1,5.1,0,0,1-1.956.362,2.975,2.975,0,0,1-2.373-.942,3.976,3.976,0,0,1-.82-2.717,4.388,4.388,0,0,1,.4-1.947,2.939,2.939,0,0,1,1.159-1.277,3.41,3.41,0,0,1,1.775-.453,4.823,4.823,0,0,1,2.079.5l-.516,1.254a8.566,8.566,0,0,0-.8-.331,2.382,2.382,0,0,0-.779-.14Z" transform="translate(-241.231 -86.328)" fill="#474748"/>
    <path id="Path_142" data-name="Path 142" d="M340.976,93.725H336.9V86.61h4.076v1.236h-2.59v1.562h2.409v1.236h-2.409v1.811h2.59Z" transform="translate(-249.298 -86.482)" fill="#474748"/>
  </g>
</svg>
